<svg version="1.2" xmlns="http://www.w3.org/2000/svg" viewBox="0 0 375 67" width="375" height="67">
	<title>InnovaDos-svg</title>
	<style>
		.s0 { fill: #38b6ff } 
	</style>
	<g id="Layer">
		<g id="Layer">
			<g id="Layer">
				<path id="Layer" class="s0" d="m19.5 1.4v65h-14.8v-65z"/>
			</g>
		</g>
	</g>
	<g id="Layer">
		<g id="Layer">
			<g id="Layer">
				<path id="Layer" class="s0" d="m21.6 66.4v-40.4h13.9v4.2h0.2q5.4-5.4 11.6-5.4 3 0 5.9 0.8 3 0.8 5.7 2.4 2.7 1.7 4.4 4.7 1.7 3 1.7 7.1v26.6h-13.9v-22.9q0-3.1-2-5.5-2.1-2.4-5.3-2.4-3.1 0-5.7 2.5-2.6 2.4-2.6 5.4v22.9z"/>
			</g>
		</g>
	</g>
	<g id="Layer">
		<g id="Layer">
			<g id="Layer">
				<path id="Layer" class="s0" d="m66.3 66.4v-40.4h13.9v4.2h0.2q5.4-5.4 11.6-5.4 3 0 5.9 0.8 3 0.8 5.7 2.4 2.7 1.7 4.4 4.7 1.7 3 1.7 7.1v26.6h-13.9v-22.9q0-3.1-2.1-5.5-2-2.4-5.2-2.4-3.1 0-5.7 2.5-2.6 2.4-2.6 5.4v22.9z"/>
			</g>
		</g>
	</g>
	<g id="Layer">
		<g id="Layer">
			<g id="Layer">
				<path id="Layer" fill-rule="evenodd" class="s0" d="m114.8 61.6q-6.8-6-6.8-15.4 0-9.4 7.1-15.4 7-6 17.3-6 10.2 0 17.1 6 7 6.1 7 15.4 0 9.3-6.8 15.4-6.8 6-17.3 6-10.9 0-17.6-6zm10.8-22.2q-2.8 2.6-2.8 6.8 0 4.2 2.6 6.8 2.6 2.7 6.9 2.7 4.1 0 6.8-2.7 2.6-2.7 2.6-6.8 0-4.2-2.7-6.8-2.7-2.7-6.7-2.7-4 0-6.7 2.7z"/>
			</g>
		</g>
	</g>
	<g id="Layer">
		<g id="Layer">
			<g id="Layer">
				<path id="Layer" class="s0" d="m165.9 26l9.8 21.9 9.9-21.9h16.5l-21.6 40.4h-9.5l-21.7-40.4z"/>
			</g>
		</g>
	</g>
	<g id="Layer">
		<g id="Layer">
			<g id="Layer">
				<path id="Layer" fill-rule="evenodd" class="s0" d="m200.6 61.4q-5.6-6.2-5.6-15.2 0-9 5.6-15.2 5.7-6.2 14.5-6.2 8 0 13.2 5v-3.8h13.9v40.4h-13.7v-4.6h-0.2q-5.2 5.8-13.2 5.8-8.8 0-14.5-6.2zm11.9-22q-2.7 2.6-2.7 6.8 0 4.2 2.6 6.8 2.6 2.7 6.8 2.7 4.1 0 6.8-2.7 2.6-2.7 2.6-6.8 0-4.2-2.7-6.8-2.7-2.7-6.7-2.7-4 0-6.7 2.7z"/>
			</g>
		</g>
	</g>
	<g id="Layer">
		<g id="Layer">
			<g id="Layer">
				<path id="Layer" fill-rule="evenodd" class="s0" d="m244.3 1.4h18.8q13.6 0 23.2 9.2 9.6 9.3 9.6 23.2 0 14.1-9.6 23.3-9.5 9.3-23.2 9.3h-18.8zm14.8 51.8h2.3q8.1 0 13.3-5.5 5.1-5.5 5.2-13.8 0-8.2-5.2-13.7-5.1-5.6-13.3-5.6h-2.3z"/>
			</g>
		</g>
	</g>
	<g id="Layer">
		<g id="Layer">
			<g id="Layer">
				<path id="Layer" fill-rule="evenodd" class="s0" d="m298.8 61.6q-6.7-6-6.7-15.4 0-9.4 7-15.4 7-6 17.4-6 10.1 0 17.1 6 7 6.1 7 15.4 0 9.3-6.8 15.4-6.8 6-17.3 6-10.9 0-17.7-6zm10.8-22.2q-2.7 2.6-2.7 6.8 0 4.2 2.6 6.8 2.6 2.7 6.9 2.7 4.1 0 6.7-2.7 2.7-2.7 2.7-6.8 0-4.2-2.7-6.8-2.8-2.7-6.7-2.7-4 0-6.8 2.7z"/>
			</g>
		</g>
	</g>
	<g id="Layer">
		<g id="Layer">
			<g id="Layer">
				<path id="Layer" class="s0" d="m357.3 24.8q3.5 0 6.9 0.8 3.3 0.8 5 1.5l1.6 0.8-4.5 9.2q-4.8-2.5-9-2.5-2.4 0-3.4 0.5-0.9 0.5-0.9 1.9-0.1 0.3 0 0.6 0.1 0.3 0.3 0.6 0.3 0.3 0.5 0.5 0.2 0.2 0.7 0.4 0.4 0.3 0.7 0.4 0.3 0.1 0.9 0.3 0.6 0.3 0.9 0.4 0.4 0.1 1.1 0.3 0.8 0.3 1.2 0.3 2.4 0.8 4.2 1.6 1.8 0.9 3.8 2.4 2.1 1.5 3.2 3.8 1.1 2.3 1.1 5.2 0 13.8-19.2 13.8-4.3 0-8.2-1.4-3.9-1.3-5.7-2.6l-1.7-1.5 5.7-9.5q0.6 0.5 1.6 1.3 1.1 0.7 3.7 2.1 2.7 1.3 4.7 1.3 4.3 0 4.3-3 0-1.3-1.1-2.1-1.1-0.7-3.7-1.6-2.7-1-4.2-1.8-3.8-2-6-4.4-2.2-2.5-2.2-6.6 0-6.2 4.8-9.6 4.8-3.4 12.9-3.4z"/>
			</g>
		</g>
	</g>
</svg>