<svg version="1.2" xmlns="http://www.w3.org/2000/svg" viewBox="0 0 375 94" width="375" height="94">
	<title>InnovaDos-svg</title>
	<style>
		.s0 { fill: #38b6ff } 
	</style>
	<path id="Layer" class="s0" d="m19.5 4.4v65h-14.8v-65zm2.1 65v-40.4h13.9v4.2h0.2q5.4-5.4 11.6-5.4 3 0 5.9 0.8 0.8 0.2 1.5 0.4 0.7 0.3 1.4 0.6 0.8 0.3 1.4 0.6 0.7 0.4 1.4 0.8 2.7 1.7 4.4 4.7 1.7 3 1.7 7.1v26.6h-13.9v-22.9q0-3.1-2-5.5-2.1-2.4-5.3-2.4-3.1 0-5.7 2.5-2.6 2.4-2.6 5.4v22.9zm44.7 0v-40.4h14v4.2h0.1q5.5-5.4 11.6-5.4 3 0 6 0.8 0.7 0.2 1.4 0.4 0.8 0.3 1.5 0.6 0.7 0.3 1.4 0.6 0.7 0.4 1.3 0.8 2.8 1.7 4.5 4.7 1.6 3 1.6 7.1v26.6h-13.9v-22.9q0-3.1-2-5.5-2-2.4-5.3-2.4-3.1 0-5.7 2.5-2.5 2.4-2.5 5.4v22.9z"/>
	<path id="Layer" fill-rule="evenodd" class="s0" d="m114.8 64.6q-6.8-6-6.8-15.4 0-9.4 7-15.4 7.1-6 17.4-6 10.2 0 17.1 6 7 6.1 7 15.4 0 9.3-6.8 15.4-6.8 6-17.3 6-10.9 0-17.6-6zm10.8-22.2q-2.8 2.6-2.8 6.8 0 4.2 2.6 6.8 2.6 2.7 6.9 2.7 4.1 0 6.8-2.7 2.6-2.7 2.6-6.8 0-4.2-2.7-6.8-2.7-2.7-6.7-2.7-4 0-6.7 2.7zm40.3-13.4l9.8 21.9 9.9-21.9h16.5l-21.6 40.4h-9.5l-21.7-40.4zm34.8 35.4q-5.7-6.2-5.7-15.2 0-9 5.7-15.2 5.6-6.2 14.4-6.2 8 0 13.2 5v-3.8h14v40.4h-13.8v-4.6h-0.2q-5.2 5.8-13.2 5.8-8.8 0-14.4-6.2zm11.8-22q-2.7 2.6-2.7 6.8 0 4.2 2.6 6.8 2.6 2.7 6.9 2.7 4.1 0 6.7-2.7 2.6-2.7 2.6-6.8 0-4.2-2.7-6.8-2.7-2.7-6.6-2.7-4 0-6.8 2.7zm31.8-38h18.9q13.5 0 23.1 9.2 9.6 9.3 9.7 23.2-0.1 14.1-9.6 23.3-9.6 9.3-23.2 9.3h-18.9zm14.8 51.8h2.3q8.1 0 13.3-5.5 5.2-5.5 5.2-13.8 0-8.2-5.1-13.7-5.2-5.6-13.4-5.6h-2.3z"/>
	<path id="Layer" fill-rule="evenodd" class="s0" d="m298.8 64.6q-6.7-6-6.7-15.4 0-9.4 7-15.4 7-6 17.4-6 10.1 0 17.1 6 7 6.1 7 15.4 0 9.3-6.8 15.4-6.8 6-17.3 6-10.9 0-17.7-6zm10.8-22.2q-2.7 2.6-2.7 6.8 0 4.2 2.6 6.8 2.6 2.7 6.9 2.7 4.1 0 6.7-2.7 2.7-2.7 2.7-6.8 0-4.2-2.7-6.8-2.8-2.7-6.7-2.7-4 0-6.8 2.7z"/>
	<path id="Layer" fill-rule="evenodd" class="s0" d="m357.3 27.8q3.5 0 6.9 0.8 3.3 0.8 5 1.5l1.6 0.8-4.5 9.2q-4.8-2.5-9-2.5-2.4 0-3.4 0.5-0.9 0.5-0.9 1.9-0.1 0.3 0 0.6 0.1 0.3 0.3 0.6 0.3 0.3 0.5 0.5 0.2 0.2 0.7 0.4 0.4 0.3 0.7 0.4 0.3 0.1 0.9 0.3 0.6 0.3 0.9 0.4 0.4 0.1 1.1 0.3 0.8 0.3 1.2 0.3 2.4 0.8 4.2 1.6 1.8 0.9 3.8 2.4 0.5 0.4 1 0.8 0.4 0.4 0.8 0.9 0.4 0.5 0.8 1 0.3 0.5 0.6 1.1 1.1 2.3 1.1 5.2 0 13.8-19.2 13.8-4.3 0-8.2-1.4-3.9-1.3-5.7-2.6l-1.7-1.5 5.7-9.5q0.6 0.5 1.6 1.3 1.1 0.7 3.7 2.1 2.7 1.3 4.7 1.3 4.3 0 4.3-3 0-1.3-1.1-2.1-1.1-0.7-3.7-1.6-2.7-1-4.2-1.8-3.8-2-6-4.4-2.2-2.5-2.2-6.6 0-6.2 4.8-9.6 4.8-3.4 12.9-3.4zm-267 53.9q0.1 0 0.1 0 0.1 0.1 0.1 0.1 0.1 0.1 0.1 0.2 0 0 0 0.1 0 0 0 0.1 0 0 0 0.1-0.1 0-0.1 0.1 0 0 0 0.1-0.1 0-0.1 0-0.1 0.1-0.1 0.1 0 0-0.1 0 0 0-0.1 0 0 0-0.1 0 0 0 0 0-0.1 0-0.1 0-0.1 0-0.1-0.1-0.1 0-0.3-0.1-0.2-0.1-0.4-0.1-0.1-0.1-0.3-0.1-0.2 0-0.4 0-0.8 0-1.4 0.3-0.6 0.4-1 1-0.3 0.6-0.3 1.5 0 0.8 0.4 1.5 0.3 0.6 0.9 0.9 0.2 0.1 0.3 0.2 0.2 0 0.4 0.1 0.2 0 0.3 0.1 0.2 0 0.4 0 0.8 0 1.4-0.4 0 0 0.1 0 0 0 0.1-0.1 0 0 0 0 0.1 0 0.1 0 0.2 0 0.4 0.2 0.1 0.2 0.1 0.3 0 0.1 0 0.1 0 0 0 0.1 0 0 0 0-0.1 0.1-0.1 0.1 0 0 0 0 0 0.1-0.1 0.1 0 0 0 0 0 0-0.1 0.1-0.1 0-0.2 0.1-0.1 0-0.2 0.1-0.1 0-0.3 0.1-0.1 0-0.2 0-0.5 0.2-1 0.2-1 0-1.9-0.5-0.2-0.1-0.4-0.2-0.2-0.2-0.4-0.4-0.1-0.1-0.3-0.3-0.1-0.2-0.3-0.4-0.5-0.9-0.5-2 0-1.1 0.5-2 0.5-0.8 1.4-1.3 0.2-0.2 0.4-0.2 0.2-0.1 0.5-0.2 0.2-0.1 0.5-0.1 0.2 0 0.5 0 1 0 1.9 0.5zm12.1 6.1q0.1 0 0.1 0.1 0 0 0 0 0 0 0.1 0.1 0 0 0 0 0.1 0.1 0.1 0.2 0 0.2-0.2 0.3 0 0.1-0.1 0.1 0 0 0 0-0.1 0-0.1 0.1-0.1 0-0.1 0-0.1 0-0.1 0 0 0-0.1-0.1 0 0-0.1 0 0 0 0 0-0.1-0.1-0.2-0.1-0.1-0.1-0.2-0.2 0 0-0.1-0.1 0-0.1-0.1-0.2-0.2-0.4-0.2-1.2 0-0.5-0.3-0.8-0.3-0.2-0.8-0.2h-2.2v2.3q0 0.1 0 0.1 0 0.1 0 0.1 0 0.1 0 0.1-0.1 0.1-0.1 0.1 0 0.1-0.1 0.1 0 0 0 0-0.1 0-0.1 0.1-0.1 0-0.1 0-0.1 0-0.1-0.1-0.1 0-0.1 0-0.1 0-0.1 0-0.1 0-0.1-0.1-0.1 0-0.1-0.1 0 0-0.1 0 0-0.1 0-0.2 0 0 0-0.1v-6.3q0-0.3 0.1-0.4 0.1 0 0.1-0.1 0.1 0 0.1 0 0 0 0.1-0.1 0.1 0 0.1 0h3q0.3 0 0.5 0.1 0.3 0.1 0.5 0.2 0.3 0.2 0.5 0.4 0.2 0.2 0.3 0.4 0.3 0.5 0.3 1.1 0 0.6-0.3 1.1-0.4 0.5-0.9 0.8 0.4 0.2 0.7 0.5 0.2 0.4 0.2 0.9 0 0.6 0.1 0.8 0.1 0.2 0.2 0.3zm-2.1-2.9q0 0 0.1 0 0.1-0.1 0.1-0.1 0.1 0 0.1 0 0.1-0.1 0.2-0.1 0-0.1 0.1-0.1 0-0.1 0.1-0.2 0 0 0.1-0.1 0-0.1 0-0.1 0.2-0.4 0.2-0.8 0-0.5-0.3-0.8-0.3-0.4-0.8-0.4h-2.4v2.7zm13 2.8q0.2 0 0.3 0.1 0.1 0.1 0.1 0.1 0 0.1 0 0.1 0 0 0.1 0.1 0 0 0 0.1 0 0 0 0.1 0 0-0.1 0.1 0 0 0 0.1 0 0-0.1 0 0 0.1-0.1 0.1 0 0 0 0-0.1 0-0.1 0.1-0.1 0-0.1 0h-3.7q-0.1 0-0.1 0-0.1-0.1-0.1-0.1-0.1 0-0.1 0-0.1 0-0.1-0.1 0 0-0.1-0.1 0 0 0-0.1 0 0 0-0.1 0 0 0-0.1v-6.3q0-0.3 0.1-0.4 0 0 0.1-0.1 0 0 0.1 0 0 0 0.1-0.1 0 0 0.1 0h3.7q0.2 0 0.3 0.2 0.2 0.1 0.2 0.3 0 0.1 0 0.1 0 0.1-0.1 0.1 0 0.1 0 0.1 0 0.1-0.1 0.1 0 0-0.1 0.1 0 0 0 0-0.1 0-0.1 0-0.1 0-0.1 0h-3.2v2.2h2.7q0.2 0 0.3 0.1 0.2 0.2 0.2 0.4 0 0 0 0.1 0 0 0 0.1-0.1 0-0.1 0 0 0.1-0.1 0.1 0 0.1 0 0.1-0.1 0-0.1 0-0.1 0-0.1 0-0.1 0-0.1 0h-2.7v2.4zm12.5 0.3q0.1 0 0.1 0.1 0 0 0 0 0 0 0 0.1 0 0 0 0 0 0.2-0.2 0.3 0 0.1 0 0.1-0.1 0-0.1 0.1-0.1 0-0.1 0 0 0-0.1 0 0 0-0.1 0 0 0 0 0-0.1 0-0.1-0.1 0 0-0.1 0 0 0 0 0-0.1-0.1-0.1-0.1 0 0 0-0.1-0.1 0-0.1-0.1l-0.6-1.5h-3.3l-0.6 1.6q-0.1 0-0.1 0 0 0.1 0 0.1 0 0-0.1 0.1 0 0 0 0-0.1 0-0.1 0 0 0.1-0.1 0.1 0 0 0 0-0.1 0-0.1 0-0.2 0-0.3-0.1-0.1-0.1-0.1-0.1 0 0 0-0.1 0 0 0-0.1 0 0 0 0 0-0.1 0-0.2l2.7-6.6q0 0 0 0 0-0.1 0.1-0.1 0 0 0-0.1 0 0 0.1 0 0 0 0-0.1 0.1 0 0.1 0 0.1 0 0.1 0 0 0 0.1 0 0.1 0 0.3 0.1 0 0 0 0 0.1 0.1 0.1 0.1 0 0 0 0.1 0 0 0.1 0zm-4.5-2.1h2.5l-1.2-3zm13.6-4.6q1 0 1.7 0.5 0.7 0.5 1.1 1.3 0.3 0.9 0.3 1.9 0 1.1-0.3 1.9-0.1 0.2-0.2 0.4-0.1 0.2-0.3 0.3-0.1 0.2-0.3 0.4-0.1 0.1-0.3 0.2-0.7 0.5-1.7 0.5h-2.6q-0.1 0-0.1 0-0.1 0-0.1 0-0.1 0-0.1-0.1 0 0-0.1 0 0-0.1 0-0.1-0.1 0-0.1-0.1 0 0 0-0.1 0 0 0-0.1v-6.4q0-0.2 0.1-0.3 0.1-0.1 0.1-0.1 0 0 0.1-0.1 0 0 0.1 0 0 0 0.1 0zm-0.1 6.5q1.1 0 1.6-0.8 0.5-0.8 0.5-2 0-1.2-0.5-1.9-0.6-0.8-1.6-0.8h-2v5.5zm16.3-2.8q0 1.1-0.4 2-0.1 0.2-0.3 0.4-0.1 0.2-0.3 0.3-0.1 0.2-0.3 0.4-0.2 0.1-0.4 0.2-0.8 0.5-1.8 0.5-1.1 0-1.9-0.5-0.2-0.1-0.4-0.2-0.2-0.2-0.3-0.4-0.2-0.1-0.3-0.3-0.2-0.2-0.3-0.4-0.4-0.9-0.4-2 0-1.1 0.4-1.9 0.1-0.2 0.3-0.4 0.1-0.2 0.3-0.4 0.1-0.2 0.3-0.3 0.2-0.2 0.4-0.3 0.2-0.1 0.4-0.2 0.3-0.1 0.5-0.2 0.2 0 0.5-0.1 0.2 0 0.5 0 1 0 1.8 0.5 0.8 0.5 1.3 1.4 0.4 0.8 0.4 1.9zm-1 0q0-0.8-0.4-1.4-0.1-0.2-0.1-0.3-0.1-0.2-0.3-0.3-0.1-0.1-0.2-0.2-0.1-0.1-0.3-0.2-0.1-0.1-0.3-0.2-0.1-0.1-0.3-0.1-0.1 0-0.3-0.1-0.2 0-0.3 0-0.8 0-1.3 0.4-0.2 0.1-0.3 0.2-0.1 0.1-0.2 0.2-0.2 0.1-0.3 0.3 0 0.1-0.1 0.3-0.3 0.6-0.3 1.4 0 0.8 0.3 1.5 0.3 0.6 0.9 1 0.5 0.3 1.3 0.3 0.7 0 1.2-0.3 0.6-0.4 0.9-1 0.4-0.7 0.4-1.5zm13 2.9q0 0 0.1 0 0 0 0 0.1 0 0 0 0 0.1 0 0.1 0.1 0 0.1 0.1 0.2-0.1 0.2-0.2 0.3 0 0-0.1 0.1 0 0-0.1 0 0 0-0.1 0 0 0 0 0-0.1 0-0.1 0-0.1 0-0.1 0-0.1 0-0.1 0 0 0-0.1-0.1-0.1 0-0.1-0.1-0.1 0-0.2-0.1-0.1-0.1-0.1-0.2-0.1 0-0.1-0.1-0.2-0.4-0.2-1.2 0-0.6-0.3-0.8-0.3-0.3-0.9-0.3h-2.1v2.4q0 0.1 0 0.1 0 0.1 0 0.1 0 0.1-0.1 0.1 0 0 0 0.1 0 0-0.1 0 0 0.1-0.1 0.1 0 0-0.1 0 0 0 0 0-0.1 0-0.2 0 0 0-0.1 0 0 0-0.1-0.1 0 0-0.1 0 0-0.1 0-0.1-0.1 0-0.1-0.1 0 0 0-0.1 0 0 0-0.1v-6.4q0-0.2 0.1-0.3 0-0.1 0.1-0.1 0 0 0.1-0.1 0 0 0.1 0 0 0 0.1 0h2.9q0.3 0 0.6 0.1 0.3 0 0.5 0.2 0.2 0.1 0.4 0.3 0.2 0.2 0.4 0.5 0.3 0.4 0.3 1.1 0 0.6-0.4 1.1-0.3 0.5-0.8 0.7 0.4 0.3 0.6 0.6 0.3 0.4 0.3 0.8 0 0.6 0.1 0.9 0 0.2 0.2 0.3zm-2.2-2.9q0.1-0.1 0.2-0.1 0 0 0.1 0 0.1 0 0.1-0.1 0.1 0 0.1-0.1 0.1 0 0.1-0.1 0.1 0 0.1-0.1 0.1-0.1 0.1-0.1 0.1-0.1 0.1-0.2 0.2-0.3 0.2-0.7 0-0.5-0.4-0.9-0.3-0.3-0.7-0.3h-2.4v2.7zm12.9 2.8q0.3 0 0.4 0.1 0 0 0.1 0.1 0 0 0 0.1 0 0 0 0 0 0.1 0 0.1 0 0.1 0 0.1 0 0.1 0 0.1 0 0.1 0 0.1-0.1 0.1-0.1 0.1 0 0-0.1 0.1 0 0-0.1 0 0 0-0.1 0 0 0-0.1 0h-3.6q-0.1 0-0.2 0 0 0 0 0-0.1 0-0.1-0.1-0.1 0-0.1 0-0.1-0.1-0.1-0.1 0 0 0-0.1 0 0-0.1-0.1 0 0 0-0.1v-6.4q0-0.2 0.2-0.3 0-0.1 0.1-0.1 0 0 0-0.1 0.1 0 0.1 0 0.1 0 0.2 0h3.6q0.3 0 0.4 0.1 0.1 0.2 0.1 0.4 0 0.1 0 0.1 0 0 0 0.1 0 0 0 0.1-0.1 0-0.1 0.1 0 0-0.1 0 0 0-0.1 0.1 0 0-0.1 0 0 0-0.1 0h-3.1v2.1h2.7q0.2 0 0.3 0.2 0.2 0.1 0.2 0.3 0 0.1 0 0.1 0 0.1-0.1 0.1 0 0.1 0 0.1 0 0.1-0.1 0.1 0 0-0.1 0 0 0.1-0.1 0.1 0 0 0 0-0.1 0-0.1 0h-2.7v2.4zm9.1 1q-0.8 0-1.4-0.2-0.2 0-0.3-0.1-0.2-0.1-0.3-0.2-0.1-0.1-0.3-0.2-0.1-0.1-0.2-0.2-0.1 0-0.1-0.1-0.1 0-0.1-0.1 0 0 0-0.1-0.1-0.1-0.1-0.1 0-0.1 0.1-0.2 0-0.1 0.1-0.2 0.1 0 0.2-0.1 0 0 0.1 0 0.2 0 0.3 0.1 0.5 0.4 0.9 0.6 0.5 0.1 1 0.1 0.7 0 1.2-0.2 0.4-0.4 0.4-0.8 0-0.2 0-0.3 0-0.1-0.1-0.2 0-0.1-0.1-0.2-0.1-0.1-0.2-0.2-0.5-0.3-1.4-0.5-1.1-0.2-1.7-0.7-0.6-0.5-0.6-1.4 0-0.6 0.4-1.1 0.3-0.5 0.9-0.7 0.6-0.3 1.3-0.3 0.6 0 1.2 0.2 0.6 0.2 1 0.6 0.2 0.2 0.2 0.4 0 0.1 0 0.1 0 0.1 0 0.1 0 0.1-0.1 0.1 0 0 0 0.1-0.1 0-0.1 0-0.1 0.1-0.1 0.1 0 0-0.1 0 0 0-0.1 0 0 0 0 0-0.1 0-0.1 0 0 0-0.1 0 0 0 0-0.1-0.3-0.2-0.8-0.4-0.1-0.1-0.2-0.1-0.1-0.1-0.2-0.1-0.2 0-0.3 0-0.1 0-0.2 0-0.7 0-1.1 0.3-0.5 0.3-0.5 0.7 0 0.6 0.5 0.8 0.4 0.3 1.2 0.5 0.8 0.2 1.3 0.4 0.6 0.3 0.9 0.7 0.2 0.4 0.2 1.1 0 0.6-0.3 1.1-0.3 0.5-0.9 0.8-0.2 0-0.4 0.1-0.1 0-0.3 0.1-0.1 0-0.3 0-0.2 0-0.3 0zm19.9-7.5q1 0 1.7 0.5 0.7 0.5 1.1 1.3 0.4 0.9 0.4 1.9 0 1.1-0.4 1.9-0.1 0.2-0.2 0.4-0.1 0.2-0.2 0.3-0.2 0.2-0.3 0.4-0.2 0.1-0.4 0.2-0.7 0.5-1.7 0.5h-2.6q0 0-0.1 0 0 0-0.1 0 0 0-0.1-0.1 0 0-0.1 0 0-0.1 0-0.1 0 0-0.1-0.1 0 0 0-0.1 0 0 0-0.1v-6.4q0-0.2 0.1-0.3 0.1-0.1 0.1-0.1 0.1 0 0.1-0.1 0.1 0 0.1 0 0.1 0 0.1 0zm-0.1 6.5q1.1 0 1.6-0.8 0.6-0.8 0.6-2 0-1.2-0.6-1.9-0.5-0.8-1.6-0.8h-2v5.5zm10.7 0.4q0 0.1 0 0.1-0.1 0.1-0.1 0.1 0 0.1 0 0.1-0.1 0-0.1 0.1 0 0-0.1 0 0 0.1-0.1 0.1 0 0-0.1 0 0 0-0.1 0 0 0-0.1 0 0 0-0.1 0 0 0-0.1-0.1 0 0 0 0-0.1-0.1-0.1-0.1 0 0 0-0.1-0.1 0-0.1-0.1 0 0 0-0.1v-6.4q0-0.2 0.2-0.3 0-0.1 0-0.1 0.1 0 0.1-0.1 0.1 0 0.1 0 0.1 0 0.1 0 0.3 0 0.4 0.2 0 0 0.1 0 0 0.1 0 0.1 0 0.1 0.1 0.1 0 0.1 0 0.1zm12.2-3.4q0.2 0 0.3 0.2 0.1 0 0.1 0.1 0 0 0 0 0.1 0.1 0.1 0.1 0 0.1 0 0.1v2.4q0 0.3-0.3 0.5-0.5 0.3-1.1 0.5-0.5 0.1-1.2 0.1-1 0-1.9-0.5-0.2-0.1-0.4-0.2-0.2-0.2-0.4-0.4-0.2-0.1-0.3-0.3-0.2-0.2-0.3-0.4-0.1-0.3-0.2-0.5-0.1-0.2-0.2-0.5 0-0.2-0.1-0.5 0-0.2 0-0.5 0-1 0.5-1.9 0.1-0.2 0.3-0.4 0.1-0.2 0.3-0.4 0.2-0.1 0.4-0.3 0.2-0.1 0.4-0.3 0.2-0.1 0.4-0.2 0.3-0.1 0.5-0.2 0.3 0 0.5-0.1 0.3 0 0.5 0 0.6 0 1.1 0.1 0.5 0.2 0.9 0.4 0 0 0 0 0 0 0.1 0.1 0 0 0 0 0 0 0 0.1 0.1 0 0.1 0 0 0 0 0.1 0 0 0 0 0 0.1 0 0.1 0 0 0 0.1 0 0 0 0.1 0 0-0.1 0.1 0 0 0 0.1-0.1 0-0.1 0 0 0-0.1 0.1 0 0-0.1 0 0 0-0.1 0 0 0-0.1 0 0 0 0 0-0.1 0-0.1 0 0-0.1 0-0.1-0.2 0-0.4-0.1-0.2-0.1-0.3-0.1-0.2 0-0.4-0.1-0.2 0-0.4 0-0.7 0-1.3 0.4-0.7 0.4-1 1-0.1 0.2-0.2 0.3-0.1 0.2-0.1 0.4-0.1 0.2-0.1 0.4 0 0.1 0 0.3 0 0.8 0.4 1.4 0.3 0.7 1 1.1 0.6 0.3 1.3 0.3 0.4 0 0.8-0.1 0.4 0 0.7-0.2v-1.7h-1.3q0 0-0.1 0 0 0-0.1 0 0 0-0.1 0 0-0.1-0.1-0.1 0 0 0-0.1 0 0-0.1-0.1 0 0 0-0.1 0 0 0-0.1 0-0.2 0.1-0.3 0.1-0.1 0.1-0.1 0.1 0 0.1 0 0.1-0.1 0.1-0.1 0.1 0 0.1 0zm8 3.4q0 0.1-0.1 0.1 0 0.1 0 0.1 0 0.1 0 0.1-0.1 0.1-0.1 0.1 0 0-0.1 0.1 0 0-0.1 0 0 0-0.1 0 0 0-0.1 0 0 0-0.1 0 0 0-0.1 0 0 0-0.1 0 0-0.1-0.1-0.1 0 0 0-0.1 0 0-0.1-0.1 0 0 0-0.1 0 0 0-0.1v-6.4q0-0.2 0.1-0.3 0.1-0.1 0.1-0.1 0.1 0 0.1-0.1 0.1 0 0.1 0 0.1 0 0.1 0 0.3 0 0.4 0.2 0 0 0.1 0 0 0.1 0 0.1 0 0.1 0 0.1 0.1 0.1 0.1 0.1zm11.5-6.9q0.2 0 0.4 0.2 0 0 0.1 0 0 0.1 0 0.1 0 0.1 0 0.1 0 0.1 0 0.1 0 0.1 0 0.1 0 0.1 0 0.1 0 0.1 0 0.1-0.1 0-0.1 0.1-0.1 0-0.1 0 0 0-0.1 0.1 0 0-0.1 0 0 0-0.1 0h-1.9v5.9q0 0.1 0 0.2 0 0.1-0.1 0.2-0.1 0.1-0.2 0.1-0.1 0-0.2 0-0.1 0-0.1 0-0.1 0-0.1 0-0.1 0-0.1 0 0-0.1-0.1-0.1 0 0-0.1-0.1 0 0 0-0.1 0 0 0-0.1 0 0 0-0.1v-5.9h-1.9q-0.1 0-0.1 0-0.1 0-0.1 0-0.1-0.1-0.1-0.1 0 0-0.1 0 0-0.1 0-0.1-0.1-0.1-0.1-0.1 0 0 0-0.1 0 0 0-0.1 0-0.2 0.1-0.3 0.1-0.1 0.1-0.1 0 0 0.1 0 0-0.1 0.1-0.1 0 0 0.1 0zm12.4 6.8q0 0 0 0 0 0.1 0 0.1 0 0 0 0 0 0.1 0 0.1 0 0.2-0.1 0.3 0 0.1-0.1 0.1 0 0-0.1 0 0 0.1 0 0.1-0.1 0-0.1 0-0.1 0-0.1 0 0 0-0.1 0 0-0.1-0.1-0.1 0 0 0 0-0.1 0-0.1-0.1 0 0 0 0-0.1-0.1-0.1-0.1 0 0 0-0.1l-0.7-1.5h-3.2l-0.7 1.5q0 0.1 0 0.1 0 0.1-0.1 0.1 0 0 0 0 0 0.1-0.1 0.1 0 0 0 0-0.1 0-0.1 0.1 0 0-0.1 0 0 0 0 0-0.3 0-0.4-0.1 0-0.1 0-0.1-0.1 0-0.1-0.1 0 0 0-0.1 0 0 0-0.1 0 0 0-0.1l2.7-6.6q0 0 0.1-0.1 0 0 0 0 0-0.1 0.1-0.1 0 0 0 0 0.1-0.1 0.1-0.1 0 0 0.1 0 0 0 0.1 0 0 0 0 0 0.2 0 0.3 0.1 0.1 0 0.1 0 0 0.1 0 0.1 0.1 0 0.1 0 0 0.1 0 0.1zm-4.4-2.2h2.4l-1.2-2.9zm14.6 1.8q0.3 0 0.4 0.2 0.1 0 0.1 0.1 0 0.1 0.1 0.2-0.1 0.1-0.1 0.2 0 0.1-0.1 0.2 0 0-0.1 0 0 0.1-0.1 0.1 0 0-0.1 0 0 0-0.1 0h-3.5q-0.1 0-0.1 0-0.1 0-0.1 0-0.1 0-0.1-0.1-0.1 0-0.1 0-0.1-0.1-0.1-0.1 0-0.1 0-0.1 0-0.1-0.1-0.1 0-0.1 0-0.1v-6.4q0-0.2 0.2-0.4 0 0 0.1 0 0-0.1 0.1-0.1 0 0 0.1 0 0 0 0.1 0 0.2 0 0.3 0.1 0.1 0.1 0.1 0.1 0 0.1 0 0.1 0.1 0.1 0.1 0.1 0 0.1 0 0.1v5.9zm10.9 0q0.2 0 0.4 0.2 0 0 0 0.1 0.1 0 0.1 0 0 0.1 0 0.1 0 0.1 0 0.1 0 0.1 0 0.1 0 0.1 0 0.1 0 0.1-0.1 0.1 0 0 0 0.1-0.1 0-0.1 0 0 0.1-0.1 0.1 0 0-0.1 0 0 0-0.1 0h-3.7q0 0-0.1 0 0 0-0.1 0 0 0-0.1-0.1 0 0 0 0-0.1-0.1-0.1-0.1 0-0.1-0.1-0.1 0-0.1 0-0.1 0-0.1 0-0.1v-6.4q0-0.2 0.2-0.4 0 0 0 0 0.1-0.1 0.1-0.1 0.1 0 0.1 0 0.1 0 0.1 0h3.7q0.2 0 0.4 0.1 0.1 0.2 0.1 0.4 0 0 0 0.1 0 0 0 0.1 0 0-0.1 0.1 0 0 0 0-0.1 0.1-0.1 0.1 0 0-0.1 0 0 0.1-0.1 0.1 0 0-0.1 0h-3.1v2.1h2.6q0.3 0 0.4 0.2 0.1 0.1 0.1 0.3 0.1 0.1 0 0.1 0 0.1 0 0.1 0 0.1 0 0.1-0.1 0-0.1 0.1 0 0-0.1 0 0 0.1-0.1 0.1 0 0-0.1 0 0 0-0.1 0h-2.6v2.3zm9 1.1q-0.7 0-1.3-0.2-0.2-0.1-0.3-0.1-0.2-0.1-0.3-0.2-0.2-0.1-0.3-0.2-0.1-0.1-0.3-0.2 0 0-0.1-0.1 0 0 0-0.1 0-0.1-0.1-0.1 0-0.1 0-0.1 0-0.1 0.1-0.2 0-0.1 0.1-0.2 0-0.1 0.1-0.1 0.1 0 0.2 0 0.2 0 0.3 0.1 0.4 0.4 0.9 0.6 0.4 0.1 1 0.1 0.7 0 1.1-0.3 0.5-0.3 0.5-0.7 0-0.2 0-0.3-0.1-0.1-0.1-0.2-0.1-0.1-0.2-0.2 0-0.1-0.1-0.2-0.5-0.3-1.4-0.5-1.1-0.2-1.7-0.7-0.6-0.5-0.6-1.4 0-0.7 0.3-1.1 0.4-0.5 0.9-0.8 0.6-0.2 1.4-0.2 0.6 0 1.2 0.2 0.6 0.2 0.9 0.6 0.3 0.2 0.3 0.4 0 0.1 0 0.1 0 0.1 0 0.1-0.1 0-0.1 0.1 0 0-0.1 0.1 0 0 0 0-0.1 0-0.1 0.1-0.1 0-0.1 0-0.1 0-0.1 0 0 0-0.1 0 0 0 0 0-0.1 0-0.1 0 0-0.1 0-0.1-0.3-0.3-0.8-0.5-0.1 0-0.2 0-0.1-0.1-0.3-0.1-0.1 0-0.2 0-0.1 0-0.2 0-0.7 0-1.2 0.3-0.4 0.2-0.4 0.7 0 0.5 0.4 0.8 0.5 0.3 1.3 0.5 0.8 0.2 1.3 0.4 0.6 0.2 0.8 0.7 0.3 0.4 0.3 1.1 0 0.6-0.3 1.1-0.4 0.5-1 0.7-0.1 0.1-0.3 0.2-0.1 0-0.3 0.1-0.2 0-0.3 0-0.2 0-0.4 0z"/>
</svg>